<svg xmlns="http://www.w3.org/2000/svg" width="494" height="521.809" viewBox="0 0 494 521.809">
  <g id="facebooksvg" transform="translate(-9.193 -50.001)">
    <g id="Grupo">
      <text id="simpleicon.com" transform="translate(168.783 543.809)" fill="#fff" font-size="20" font-family="Verdana-Bold, Verdana" font-weight="700"><tspan x="0" y="0">simpleicon.com</tspan></text>
      <text id="Collection_Of_Flat_Icon_Symbols_And_Glyph_Icons" data-name="Collection Of Flat Icon, Symbols And Glyph Icons" transform="translate(9.193 567.809)" fill="#fff" font-size="20" font-family="Verdana"><tspan x="0" y="0">Collection Of Flat Icon, Symbols And Glyph Icons</tspan></text>
    </g>
    <g id="_x23_020201ff">
      <path id="Caminho_67" data-name="Caminho 67" d="M223.22,71.227c16.066-15.3,38.918-20.465,60.475-21.109,22.8-.205,45.589-.081,68.388-.072q.135,36.077-.009,72.161c-14.734-.026-29.478.036-44.212-.026-9.343-.582-18.937,6.5-20.635,15.762-.224,16.093-.081,32.2-.072,48.289,21.61.089,43.22-.027,64.829.054-1.582,23.281-4.47,46.456-7.858,69.541-19.088.179-38.187-.018-57.274.1-.17,68.665.089,137.33-.134,205.995-28.352.116-56.721-.054-85.072.08-.537-68.674.044-137.383-.295-206.066-13.832-.144-27.672.1-41.5-.116.053-23.085.018-46.169.026-69.246,13.822-.169,27.654.036,41.477-.1.42-22.442-.421-44.91.438-67.333C203.175,101.384,209.943,83.493,223.22,71.227Z" fill="#fff"/>
    </g>
  </g>
</svg>
