<svg xmlns="http://www.w3.org/2000/svg" width="53.8" height="53.4" viewBox="0 0 53.8 53.4">
  <g id="instagram" transform="translate(0.2 -0.1)">
    <rect id="Retângulo_3" data-name="Retângulo 3" width="53.8" height="53.4" transform="translate(-0.2 0.1)" fill="none"/>
    <path id="Caminho_66" data-name="Caminho 66" d="M48.1,26.3c0,4.3,0,7.2-.1,8.8-.2,3.9-1.3,6.9-3.5,9a13.411,13.411,0,0,1-9,3.5c-1.6.1-4.6.1-8.8.1-4.3,0-7.2,0-8.8-.1-3.9-.2-6.9-1.3-9-3.5C6.8,42,5.6,39,5.4,35.1c-.1-1.6-.1-4.6-.1-8.8s0-7.2.1-8.8c.2-3.9,1.3-6.9,3.5-9C11,6.4,14,5.2,17.9,5c1.6-.1,4.6-.1,8.8-.1,4.3,0,7.2,0,8.8.1,3.9.2,6.9,1.3,9,3.5a13.411,13.411,0,0,1,3.5,9C48,19.1,48.1,22,48.1,26.3ZM28.8,8.7H21.7c-.7,0-1.6,0-2.7.1a12.31,12.31,0,0,0-2.9.3,8.3,8.3,0,0,0-2,.5,9.632,9.632,0,0,0-2.5,1.6A7.161,7.161,0,0,0,10,13.7a8.3,8.3,0,0,0-.5,2c-.1.8-.2,1.7-.3,2.9,0,1.1-.1,2-.1,2.7v10c0,.7,0,1.6.1,2.7a12.31,12.31,0,0,0,.3,2.9,19.266,19.266,0,0,0,.5,2,9.632,9.632,0,0,0,1.6,2.5A7.161,7.161,0,0,0,14.1,43a8.3,8.3,0,0,0,2,.5c.8.1,1.7.2,2.9.3s2,.1,2.7.1h10c.7,0,1.6,0,2.7-.1a12.31,12.31,0,0,0,2.9-.3,8.3,8.3,0,0,0,2-.5,9.633,9.633,0,0,0,2.5-1.6,7.161,7.161,0,0,0,1.6-2.5,8.3,8.3,0,0,0,.5-2c.1-.8.2-1.7.3-2.9,0-1.1.1-2,.1-2.7v-10c0-.7,0-1.6-.1-2.7a12.31,12.31,0,0,0-.3-2.9,8.3,8.3,0,0,0-.5-2,9.633,9.633,0,0,0-1.6-2.5,7.161,7.161,0,0,0-2.5-1.6,8.3,8.3,0,0,0-2-.5c-.8-.1-1.7-.2-2.9-.3-1.1,0-2-.1-2.7-.1Zm5.6,9.8a10.636,10.636,0,0,1,3.2,7.8,10.8,10.8,0,0,1-3.2,7.8,10.636,10.636,0,0,1-7.8,3.2,10.8,10.8,0,0,1-7.8-3.2,10.636,10.636,0,0,1-3.2-7.8,10.8,10.8,0,0,1,3.2-7.8,10.636,10.636,0,0,1,7.8-3.2A10.263,10.263,0,0,1,34.4,18.5ZM31.7,31.3a6.882,6.882,0,0,0,2.1-5,7.106,7.106,0,0,0-2.1-5.1,7.243,7.243,0,0,0-10.2,0,6.943,6.943,0,0,0-2.1,5.1,6.568,6.568,0,0,0,2.1,5,7.243,7.243,0,0,0,10.2,0ZM39.9,13a2.425,2.425,0,1,1-1.8-.8A2.5,2.5,0,0,1,39.9,13Z" fill="#fff"/>
  </g>
</svg>
